/* XPM */
static char *_58e51075d394242b0f98deea56b28dcpD1rjWrSHY0AHihD[] = {
/* columns rows colors chars-per-pixel */
"30 20 229 2 ",
"   c #75487F",
".  c #AA577B",
"X  c #B55A7B",
"o  c #AC6D7E",
"O  c #B96B7B",
"+  c #CE787A",
"@  c #D67677",
"#  c #D78C7B",
"$  c #DD9278",
"%  c #E9977C",
"&  c #F79A7D",
"*  c #E78A78",
"=  c #EAA77D",
"-  c #F6B97D",
";  c #FCA077",
":  c #F9C77D",
">  c #FCD77C",
",  c #FEEA7A",
"<  c #0C3D88",
"1  c #0F388D",
"2  c #263A87",
"3  c #074587",
"4  c #18488D",
"5  c #05548D",
"6  c #0A4C9B",
"7  c #044991",
"8  c #00549B",
"9  c #16559A",
"0  c #104996",
"q  c #27478A",
"w  c #39488A",
"e  c #274993",
"r  c #384D9A",
"t  c #285796",
"y  c #024DA0",
"u  c #0254A3",
"i  c #005EA9",
"p  c #095AA7",
"a  c #0E5CB1",
"s  c #1750A5",
"d  c #265DAC",
"f  c #295AA4",
"g  c #395AA5",
"h  c #215DB3",
"j  c #274EAD",
"k  c #0864AC",
"l  c #196AAC",
"z  c #0B6CB4",
"x  c #096CB6",
"c  c #2B67A4",
"v  c #3F6CB0",
"b  c #3978B9",
"n  c #346FA5",
"m  c #43458B",
"M  c #594E86",
"N  c #484A94",
"B  c #5B4A94",
"V  c #49539C",
"C  c #435B98",
"Z  c #5C539B",
"A  c #515D9D",
"S  c #5F5882",
"D  c #674D8E",
"F  c #724C8A",
"G  c #60508F",
"H  c #73538C",
"J  c #684B97",
"K  c #774E99",
"L  c #68579C",
"P  c #765799",
"I  c #5B6098",
"U  c #73669D",
"Y  c #4B5FA4",
"T  c #4758A7",
"R  c #5B58A9",
"E  c #6355A1",
"W  c #675BA5",
"Q  c #745CA4",
"!  c #7753A6",
"~  c #685FB0",
"^  c #6B4FA6",
"/  c #4665A6",
"(  c #5667AB",
")  c #5C6FB9",
"_  c #5973B8",
"`  c #6867AA",
"'  c #7163AB",
"]  c #7C66AA",
"[  c #616BB2",
"{  c #6964B3",
"}  c #7C66B6",
"|  c #7869B5",
" . c #6D70B3",
".. c #7876B8",
"X. c #397BC4",
"o. c #736DC7",
"O. c #814C8F",
"+. c #804980",
"@. c #92418E",
"#. c #8C5788",
"$. c #9A5A89",
"%. c #8B4993",
"&. c #88579A",
"*. c #97599C",
"=. c #B54F8C",
"-. c #A9559A",
";. c #B75B96",
":. c #A35B89",
">. c #98798A",
",. c #83619E",
"<. c #956699",
"1. c #83628D",
"2. c #A1678E",
"3. c #B5788B",
"4. c #A5639B",
"5. c #AD7B9B",
"6. c #B1759D",
"7. c #A8748A",
"8. c #895AA3",
"9. c #955BA6",
"0. c #855FB6",
"q. c #A75AA3",
"w. c #8469A2",
"e. c #8B6CA4",
"r. c #8665A7",
"t. c #9667A6",
"y. c #8974A9",
"u. c #9571AA",
"i. c #8A6AB3",
"p. c #9A69B2",
"a. c #8471BB",
"s. c #8C7EB9",
"d. c #9577B7",
"f. c #A364A3",
"g. c #AD6CAC",
"h. c #A669A9",
"j. c #A579A5",
"k. c #B37BA4",
"l. c #B87AAE",
"z. c #B16EB3",
"x. c #A679B6",
"c. c #B675B4",
"v. c #BE67AC",
"b. c #C4698C",
"n. c #C87988",
"m. c #D97A95",
"M. c #C47B98",
"N. c #E77C8D",
"B. c #8161C2",
"V. c #877AC3",
"C. c #A57EC3",
"Z. c #5D84C5",
"A. c #7D83CA",
"S. c #BB8894",
"D. c #8788BC",
"F. c #9B88B8",
"G. c #8984A4",
"H. c #B785AC",
"J. c #BA90AD",
"K. c #B989B5",
"L. c #B58FBC",
"P. c #D68886",
"I. c #D8948C",
"U. c #C2839E",
"Y. c #D18E94",
"T. c #E78B88",
"R. c #E89789",
"E. c #E38795",
"W. c #E89996",
"Q. c #FF9C90",
"!. c #F59487",
"~. c #F6A789",
"^. c #EDBC81",
"/. c #FEBC80",
"(. c #EAA695",
"). c #FDAA93",
"_. c #F4AB9A",
"`. c #F4BC9A",
"'. c #F6B49A",
"]. c #E5B08F",
"[. c #C588A5",
"{. c #D89BAD",
"}. c #C78CB9",
"|. c #CC95B9",
" X c #D29BBB",
".X c #D4A5B7",
"XX c #DDB1B2",
"oX c #CCA6B1",
"OX c #F3ACA5",
"+X c #E5B7AB",
"@X c #F4B6A7",
"#X c #EDB3B4",
"$X c #FFC183",
"%X c #FFCA84",
"&X c #FAC688",
"*X c #FDD182",
"=X c #FFDA86",
"-X c #F6C797",
";X c #FED693",
":X c #FFD79A",
">X c #FFE18F",
",X c #FFEA8C",
"<X c #FFE382",
"1X c #FFF288",
"2X c #F5C8A8",
"3X c #FFD8A1",
"4X c #FBC2B7",
"5X c #8D8CC4",
"6X c #9E88C9",
"7X c #8D8DD7",
"8X c #B98EC8",
"9X c #BB98C1",
"0X c #A68ECA",
"qX c #B9A5C8",
"wX c #CA8BC7",
"eX c #CD91C7",
"rX c #D8A3C3",
"tX c #D4AAC5",
"yX c #D0ADC7",
"uX c #EBB6D0",
"iX c #DDC1D8",
"pX c #FACEC9",
"aX c #E1C2D1",
"sX c #FBC9D3",
"dX c #FCD8DB",
"fX c #F8DBE9",
"gX c #FFE1E4",
"hX c #FFEAF0",
"jX c #FFF8FF",
/* pixels */
"t ( ` L D J B E :.4.t.8.! R f 7 3 1 1 7 5 5 8 y s 6 u z x i ",
"r [ ..a.r.Q E ` &.i.V.| ~ R V w q e r g e 4 0 s 8 k x i 8 u ",
"2 T { a.a.' W ` B.o.) / V B J F M B J L J N r j k z x i u a ",
"1 e T { ..' ' a.7XA.) ( W 8.9.&.$.#.%.%.8.Q T d h s y a x x ",
"9 9 e T [ ' } d.D.D.s.p.9.9.&.H ;.;.-.q.f.] / l 6 6 6 p k p ",
"c c e e V E Q i.G.F.L.z.q.@.O.P =.-.g.g.f.P C t 3 l b f 4 e ",
"[ [ Y N V Z L ] F.6X0XC.h.q.f.g.-.*.r.t.f.*.D m 5 b Z.( N B ",
"d.6XV.{ ~ ` ' | 0.} ..V.C.z.;.=.c.8.G P g.v.*.J R W ' ] Q L ",
" . ...5X5XD.A.7Xu.e.r.i.d.} ^ L ! ^ Q K &.p.8.K &.t.p.8.P Z ",
"L U w.e.e.w.y.s.K.K.j.u.x.u.e.u.&.,.y.&.&.*.%.O.w A ( ) _ _ ",
"r.u.x.x.h.f.<.*.6.k.k.l.K.H.j.j.<.u.9XL.H.l.4.f.r g v b X.X.",
"r.x.8XeXwXwXc.-.2.6.H.|.rXrX.X.XJ.oXiXyX}.l.f.h.} { Y g d d ",
"D P t.x.K.eX}.l.[.|. XrXuXsXdXgXfXfXfXyXJ.k.t.u.9.K m 2 < 3 ",
"H F   +.$.6.M.U.[.{.{.{.#X#X#X4XsXpXdXaXtX9Xd.d.8Xd.` / n n ",
"2.$.$.. . O n.P.P.R.I.I.W.R.$ $ # I.+XXX.XJ.<.,.y.U I A Y C ",
". X b.m.N.N.T.Q.).).!.* % & & ; & R.(.I.Y.3.#.1.S M B E ^ J ",
"5.7.o O + T.!.).- $X: : *X;X:X;X-X-X`.'.@XOXW.W.m.M.k.K.9XqX",
"jXjXhXdXpX@X].]./.$X%X*X=X>X;X;X3X:X-X`.'._.W.R.E.E.[.[.J.J.",
">.>.S.oX+X2X2X2X$X%X*X> <X,X,X>X;X&X^.= = % $ # @ + n.n.S.3.",
"b.b.n.E.R.R.~.).$X%X> > , 1X1X,X=X> : - - ~.= = R.R.(.OX@XOX"
};
