/* XPM */
static char *c60c03645b6f47a9fc7c295f1e3915e5Eg88iVZT5gS9qLCM[] = {
/* columns rows colors chars-per-pixel */
"30 23 135 2 ",
"   c #165E05",
".  c #185E06",
"X  c #176006",
"o  c #1C6306",
"O  c #1E6906",
"+  c #1D6408",
"@  c #1F6908",
"#  c #206707",
"$  c #226B06",
"%  c #206608",
"&  c #246D09",
"*  c #277006",
"=  c #2A7506",
"-  c #2C7907",
";  c #26710A",
":  c #2A750B",
">  c #2D7A0C",
",  c #327D0D",
"<  c #337E10",
"1  c #35830D",
"2  c #39850E",
"3  c #35890B",
"4  c #3C8C0E",
"5  c #3D920D",
"6  c #368310",
"7  c #3B8610",
"8  c #3D8A11",
"9  c #42950E",
"0  c #459A0E",
"q  c #4A9E0E",
"w  c #418D12",
"e  c #439212",
"r  c #499614",
"t  c #469A11",
"y  c #4B9D12",
"u  c #529F15",
"i  c #4DA10E",
"p  c #4FA10F",
"a  c #4CA00D",
"s  c #4BA00E",
"d  c #4DA010",
"f  c #4CA110",
"g  c #4EA010",
"h  c #4EA111",
"j  c #4EA310",
"k  c #4DA012",
"l  c #4FA212",
"z  c #4EA312",
"x  c #4FA510",
"c  c #4FA411",
"v  c #4DA610",
"b  c #4EA612",
"n  c #4FA015",
"m  c #4EA115",
"M  c #4FA214",
"N  c #51A310",
"B  c #51A311",
"V  c #50A212",
"C  c #51A313",
"Z  c #54A113",
"A  c #50A410",
"S  c #51A710",
"D  c #50A512",
"F  c #52A412",
"G  c #53A513",
"H  c #52A612",
"J  c #52A613",
"K  c #53A713",
"L  c #55A413",
"P  c #56A412",
"I  c #56A413",
"U  c #53A014",
"Y  c #51A215",
"T  c #50A315",
"R  c #52A016",
"E  c #53A016",
"W  c #51A217",
"Q  c #54A115",
"!  c #56A315",
"~  c #57A116",
"^  c #56A017",
"/  c #55A216",
"(  c #54A316",
")  c #51A414",
"_  c #52A414",
"`  c #53A515",
"'  c #53A714",
"]  c #51A416",
"[  c #53A417",
"{  c #55A415",
"}  c #55A714",
"|  c #55A715",
" . c #55A417",
".. c #56A516",
"X. c #59A716",
"o. c #5CA717",
"O. c #57AC13",
"+. c #56A816",
"@. c #57A916",
"#. c #57AD14",
"$. c #5AAA13",
"%. c #5BAB16",
"&. c #5AAA17",
"*. c #58AC16",
"=. c #5AAF16",
"-. c #5EAE17",
";. c #57A118",
":. c #54A218",
">. c #54A518",
",. c #57A418",
"<. c #57A619",
"1. c #56A71A",
"2. c #58A718",
"3. c #5AA719",
"4. c #58A71A",
"5. c #57A919",
"6. c #57A81B",
"7. c #58AA18",
"8. c #59AB18",
"9. c #5BAB18",
"0. c #5BA81A",
"q. c #58AA1A",
"w. c #59AB1B",
"e. c #5EA919",
"r. c #5EA91B",
"t. c #5CAB1A",
"y. c #5AAC19",
"u. c #5AAC1A",
"i. c #5DAD18",
"p. c #5CAC19",
"a. c #5FAF18",
"s. c #5DAD1A",
"d. c #5DAC1B",
"f. c #60AF18",
"g. c #60AE1A",
/* pixels */
"t t y T j j j j c A O.=.O.#.=.=.p.p.p.-.p.u.@.9.9.9.5.>.T ;.",
"9 t y s j j A p j A A A c A A } _ } %.9.p.g.g.p.@.9.2._ _ T ",
"9 t 0 t 0 q q s p j p N A c c _ A } @.} } %.2.5.p.t.t.9.9.>.",
"9 9 0 9 0 9 9 q q y j j q p N N A j j } $.u.} _ n T } >.} ;.",
"5 5 5 5 0 5 9 9 0 0 y y q y j q j y j _ _ T N j N _ I o.>.T ",
"4 4 4 9 5 5 9 t 9 0 0 0 y y y y j j N n y _ T n I X.I 2.t.t.",
"4 4 4 9 4 4 5 9 9 t 9 9 9 t t t y t y y y T T } T ~ Z T ~ T ",
"1 2 1 3 3 3 3 4 4 4 5 5 t 9 e e 9 t t t n y y u ~ T Z y ~ ;.",
"2 1 1 2 2 2 4 4 4 4 8 8 e e w 4 e t t t t r y y y u ~ u T ~ ",
"2 1 7 2 2 2 2 1 2 6 8 8 e e 8 8 8 4 4 5 e e e r e e t e e e ",
"< > , 1 6 6 8 4 8 8 w e w 8 e e 8 e e 4 e e e w 8 w 4 e e w ",
", , < > > < < , 1 2 6 2 8 8 8 w 8 w w 8 8 7 w w w w 8 w w w ",
"> > > ; > > , , > 1 1 2 1 7 7 8 8 w 8 8 8 8 2 8 8 7 4 7 7 7 ",
": : : > : : > , , 1 1 7 2 1 2 7 4 8 8 w 7 2 1 7 7 , 1 7 2 < ",
"; ; ; : : ; > , , 2 2 1 2 2 1 6 1 1 6 8 1 , 1 2 , , 1 7 1 , ",
"& & & : : , , , , , 1 1 , 2 1 , 1 1 1 2 7 < , < , > , 1 , > ",
"& # & & > ; > , 1 1 , , , 1 , , , , 1 > 1 1 , > > , , , < , ",
"& ; & ; : & : > > , 1 > : , > > , , , , > : > : : : ; > , , ",
"# + # @ & & : ; ; ; = > ; - > : : > : : : : : > : : ; ; : : ",
"  o o o o & # & & # # & ; ; ; & & ; ; ; & : : : ; & ; : & ; ",
". o O X O O $ & & $ $ $ & $ O & & ; ; : ; ; * : & # * & $ = ",
"  . o X o o o $ + $ % $ o O & $ $ & ; ; & & ; $ $ & $ $ $ $ ",
"    . . . . o o % # o o + + # + # + + & & # $ # @ O % o $ o "
};
