/* XPM */
static char *bb9093f233fc4e1eea784751bdf8d181CA4w3UiYFyreVDK2[] = {
/* columns rows colors chars-per-pixel */
"30 20 146 2 ",
"   c #4F3F30",
".  c #534432",
"X  c #54463D",
"o  c #584638",
"O  c #574A3A",
"+  c #5C4C3C",
"@  c #624E3D",
"#  c #554B41",
"$  c #594C43",
"%  c #5C5242",
"&  c #5D554B",
"*  c #5D5950",
"=  c #645543",
"-  c #6A5746",
";  c #675845",
":  c #6B5B44",
">  c #61564B",
",  c #665A4B",
"<  c #6A5C4B",
"1  c #735E4D",
"2  c #645C52",
"3  c #6A5D54",
"4  c #71614C",
"5  c #666057",
"6  c #6C6155",
"7  c #676358",
"8  c #6C645B",
"9  c #6F695C",
"0  c #736454",
"q  c #796655",
"w  c #766854",
"e  c #7A6C57",
"r  c #73665A",
"t  c #756A5C",
"y  c #7A6D5B",
"u  c #7C715E",
"i  c #6E6A62",
"p  c #746C63",
"a  c #7A6E62",
"s  c #766F6A",
"d  c #727064",
"f  c #7C7264",
"g  c #76756B",
"h  c #7D756A",
"j  c #7F796D",
"k  c #7F7D73",
"l  c #816F5D",
"z  c #84735C",
"x  c #837564",
"c  c #847966",
"v  c #8E7C66",
"b  c #83776B",
"n  c #887668",
"m  c #847A6C",
"M  c #8B7C6C",
"N  c #907F6D",
"B  c #847D72",
"V  c #8A7E73",
"C  c #867E7B",
"Z  c #887F78",
"A  c #8E806E",
"S  c #92826D",
"D  c #848172",
"F  c #8D8274",
"G  c #85837A",
"H  c #8C857A",
"J  c #8F887E",
"K  c #938473",
"L  c #958875",
"P  c #9B8A76",
"I  c #91867A",
"U  c #948A7D",
"Y  c #9C8D7D",
"T  c #99917C",
"R  c #A1927D",
"E  c #A9937E",
"W  c #8A8581",
"Q  c #938D82",
"!  c #998E82",
"~  c #938E8A",
"^  c #959084",
"/  c #9C9384",
"(  c #969389",
")  c #9C948B",
"_  c #9D998D",
"`  c #979390",
"'  c #A19584",
"]  c #A89785",
"[  c #A99A83",
"{  c #A2968A",
"}  c #A39A8C",
"|  c #AC9E8C",
" . c #A49D92",
".. c #AA9E92",
"X. c #ACA18D",
"o. c #B2A28D",
"O. c #A6A193",
"+. c #AAA293",
"@. c #A9A69F",
"#. c #AEA69B",
"$. c #B4A892",
"%. c #B7AF9C",
"&. c #BAAF9D",
"*. c #BCAC9D",
"=. c #B8AC9C",
"-. c #BFB49E",
";. c #B9B09F",
":. c #AEABA2",
">. c #B0A7A0",
",. c #B5ADA2",
"<. c #BBAFA3",
"1. c #B1B1A5",
"2. c #B3B0A7",
"3. c #BBB3A5",
"4. c #B6B3AA",
"5. c #B8B6A9",
"6. c #BDB6AC",
"7. c #BBB5A9",
"8. c #BDBBAF",
"9. c #BFBBAF",
"0. c #BAB7B0",
"q. c #C0B5A3",
"w. c #C4BCA9",
"e. c #C2BAAF",
"r. c #CABFAB",
"t. c #CABAAD",
"y. c #C1B7B5",
"u. c #C3BAB1",
"i. c #C4BBB2",
"p. c #C0BCB3",
"a. c #C3BDB4",
"s. c #CDBEB1",
"d. c #C6BCBA",
"f. c #CCC0AA",
"g. c #C8C1B7",
"h. c #CBC5B7",
"j. c #CAC6BA",
"k. c #C9C5BC",
"l. c #CBC7BC",
"z. c #CBC6BB",
"x. c #CDCBBF",
"c. c #D2C6B8",
"v. c #D4CCC1",
"b. c #D9D3C7",
"n. c #DAD6CA",
"m. c #E5D7CA",
/* pixels */
"z : @ @ =   f }  .h 3 r X 3 h 8 # a a V 2 2 7 ) >.p b p 2 , ",
": S Y 0 + = x f r a I 6 r { b % U U m / B e.u.i. .! F 3 V t ",
"z v N < < ; < , O f F r  .+.P w T m m } m H m f 8 m / x x w ",
"E l y x t K x M *.M b #.} t K ] Y x A e F / m b y U } y e x ",
"1 - 0 e t 0 < M n < &.w.r.| K x < x f t F f y h & a b % e w ",
"o n A x c y t a t / q.-.f.X.P S ' %.+.X./ } / O.^ } / U U x ",
"$ 6 , e = t 2 & j b | [ o.S w O u / O.D i Q G p d h 7 B h 9 ",
"9 H M + 0 m 5 5 B } ' R z z ' U H f j.5.9.2.k G G g G ) Q ^ ",
"j H b > f 8 & 2 g 2 y M K S c x , B b.n.k.x.:.( @.0.p.k.g.6.",
"F 9 p J Z 8 ( j.5.9.3./ / m / T H m ..6.v.z.7.p k Q J V I U ",
"m r V C W g U f B h p 9 s b L M < M Y m F / r h 5 > ! V U I ",
"$.m j ~ ~ G V O.7.H W ` ~ Q F e . = + c U K I ! ! ! <.s.s.t.",
"w e f p 2 2 & a B 5  .i 8 J f e ; . . K 0 t 6 8 > & F I a n ",
"y < M b f t Q B 7 h p * t 2 r M , L %.;.H f ) }  .O.Q h b , ",
"+ e z 4 u y 8 8 s i 8 f < r / j 5 O.3.h.#. .j.2.4.a.p.4.H H ",
"Y q S S K M ) y.d.d.c.} F K { B / 3. ._ H B ( G B G B B 7 / ",
"4 c x 6 r 3 j p a M x < w M F b U O.+.} b b B B F b V f M F ",
"| o.F / ) #. .U M x q K N f t t h U #.{ t h V H b U { Y ' L ",
"o.A 0 I V B V ! x M - M l / ] F H ! U b U ) 9 V ) ) b K | x ",
"= < y f b Q { m Y M + L x ] ..} <. .,.,.#.,.) #.l.i.Q 7.m.' "
};
